<?xml version="1.0" standalone="no"?>
<!DOCTYPE svg PUBLIC "-//W3C//DTD SVG 20010904//EN"
 "http://www.w3.org/TR/2001/REC-SVG-20010904/DTD/svg10.dtd">
<svg version="1.0" xmlns="http://www.w3.org/2000/svg"
 width="1453.000000pt" height="762.000000pt" viewBox="0 0 1453.000000 762.000000"
 preserveAspectRatio="xMidYMid meet">

<g transform="translate(0.000000,762.000000) scale(0.100000,-0.100000)"
fill="#000000" stroke="none">
<path d="M0 3815 l0 -3805 7260 0 7260 0 0 3805 0 3805 -7260 0 -7260 0 0
-3805z m4125 1981 c16 -12 19 -31 23 -135 l4 -121 4312 0 4312 0 34 -29 35
-29 3 -1528 c1 -841 0 -1544 -3 -1562 -4 -23 -17 -40 -44 -57 l-37 -25 -670 2
-669 3 0 105 0 105 598 3 597 2 0 1394 c0 1262 -1 1394 -16 1400 -21 8 -8417
8 -8438 0 -13 -5 -16 -23 -16 -94 0 -198 -17 -222 -116 -169 -32 17 -70 39
-84 47 -14 9 -51 31 -82 49 -32 18 -86 49 -120 69 -35 20 -83 48 -108 62 -147
83 -165 96 -168 129 -3 27 3 35 41 61 24 17 49 37 56 46 8 9 22 16 32 16 11 0
38 12 62 27 23 14 67 40 97 56 30 16 62 36 71 43 8 8 18 14 21 14 3 0 35 16
70 37 182 105 173 101 203 79z m-907 -363 l3 -103 -494 0 c-370 0 -496 -3
-505 -12 -9 -9 -12 -331 -12 -1388 0 -756 4 -1381 8 -1388 7 -10 841 -12 4138
-10 l4129 3 2 110 c4 151 5 155 51 155 21 0 48 -9 62 -20 14 -11 28 -20 31
-20 4 0 69 -37 145 -81 196 -115 260 -149 278 -149 8 0 19 -6 23 -13 4 -8 27
-26 51 -42 52 -34 55 -63 11 -97 -17 -13 -41 -33 -53 -46 -13 -12 -31 -22 -39
-22 -9 0 -51 -20 -93 -45 -41 -25 -78 -45 -81 -45 -3 0 -17 -8 -31 -19 -15
-10 -47 -29 -72 -43 -25 -14 -87 -49 -138 -78 -89 -51 -93 -52 -117 -36 -24
16 -25 19 -25 141 l0 125 -4209 0 -4208 0 -34 23 c-18 12 -39 34 -46 47 -10
20 -13 350 -13 1550 0 1459 1 1526 18 1553 40 60 5 57 637 54 l580 -2 3 -102z
m-396 -840 c21 -24 138 -192 138 -199 0 -3 5 -10 10 -17 6 -7 51 -71 99 -143
49 -73 93 -129 99 -125 5 3 81 112 167 241 87 129 165 240 174 247 21 16 74
16 89 1 9 -9 12 -124 12 -457 0 -491 1 -481 -63 -481 -55 0 -56 6 -57 352 0
174 -4 319 -8 322 -4 2 -65 -79 -136 -180 -71 -101 -136 -189 -146 -194 -58
-31 -83 -9 -234 210 -59 85 -112 157 -117 158 -5 2 -9 -116 -9 -297 0 -345 -4
-371 -61 -371 -18 0 -41 7 -51 17 -17 15 -18 42 -18 455 0 331 3 443 12 458
16 26 78 27 100 3z m1714 0 c19 -25 17 -67 -4 -86 -16 -14 -52 -17 -253 -19
l-234 -3 -3 -139 c-2 -105 1 -141 10 -148 7 -4 82 -8 165 -8 l153 0 6 -26 c4
-15 3 -39 -2 -53 l-9 -26 -140 -2 c-206 -4 -186 13 -183 -156 l3 -142 234 -3
c201 -2 237 -5 253 -19 21 -19 23 -61 4 -85 -12 -16 -39 -18 -304 -18 l-291 0
-16 30 c-13 25 -15 92 -15 445 0 353 2 420 15 445 l16 30 291 0 c265 0 292 -2
304 -17z m912 5 c17 -17 15 -74 -4 -92 -13 -13 -42 -16 -165 -16 l-149 0 0
-387 c0 -434 -1 -436 -62 -441 -68 -6 -68 -9 -68 435 l0 393 -147 0 c-122 0
-149 3 -165 17 -21 19 -23 55 -6 83 12 19 24 20 383 20 275 0 374 -3 383 -12z
m585 -6 c9 -9 50 -101 92 -202 42 -102 84 -201 92 -220 33 -74 44 -100 112
-266 39 -95 71 -180 71 -190 0 -29 -30 -54 -65 -54 -36 0 -43 10 -98 145 l-33
80 -219 0 -219 0 -24 -60 c-13 -33 -36 -84 -49 -112 -23 -48 -28 -53 -59 -53
-46 0 -69 35 -56 82 9 32 66 172 103 255 10 23 19 44 19 48 0 3 10 27 21 53
41 91 49 110 49 116 0 3 20 54 45 113 90 213 105 246 123 266 20 22 74 22 95
-1z m685 -4 c9 -16 13 -137 15 -413 l2 -390 210 -5 c116 -3 216 -9 223 -13 15
-10 16 -79 0 -95 -9 -9 -84 -12 -275 -12 l-262 0 -16 30 c-13 25 -15 92 -15
445 0 474 0 475 69 475 29 0 40 -5 49 -22z m647 -1 c8 -12 29 -68 46 -122 17
-55 50 -158 73 -230 24 -71 56 -172 72 -223 29 -92 29 -93 47 -71 9 11 17 28
17 36 0 8 11 47 24 86 13 40 34 106 46 147 22 75 49 162 90 295 12 39 29 78
37 88 21 22 75 22 96 -1 18 -20 36 -72 118 -347 5 -16 17 -57 28 -90 10 -33
27 -87 36 -120 23 -80 36 -115 44 -115 7 0 30 69 140 420 75 239 87 264 124
268 18 2 37 -4 49 -15 28 -25 21 -60 -50 -278 -33 -99 -91 -280 -131 -401 -40
-123 -80 -229 -90 -238 -21 -19 -59 -20 -82 -3 -18 13 -34 57 -109 297 -73
233 -91 288 -110 345 l-18 50 -15 -35 c-8 -19 -25 -69 -37 -110 -12 -41 -39
-127 -60 -190 -20 -63 -52 -162 -70 -220 -41 -134 -51 -150 -93 -150 -41 0
-50 15 -92 144 -18 56 -61 189 -95 296 -34 107 -80 248 -101 312 -22 65 -39
126 -39 136 0 56 75 85 105 39z m1910 -5 c83 -38 113 -77 141 -180 21 -80 20
-464 -2 -540 -25 -87 -67 -140 -133 -171 -53 -24 -67 -26 -231 -29 -191 -4
-260 5 -320 43 -47 30 -64 51 -92 110 -22 48 -22 60 -23 315 0 234 2 270 18
310 25 60 61 106 99 126 73 38 109 43 303 41 175 -2 194 -4 240 -25z m925 12
c65 -21 123 -84 144 -155 21 -69 20 -174 -1 -240 -21 -64 -82 -131 -136 -148
-21 -7 -37 -19 -37 -27 0 -8 27 -58 61 -111 69 -107 119 -197 119 -210 0 -19
-42 -53 -65 -53 -27 0 -67 38 -90 85 -8 16 -52 89 -98 160 l-83 130 -97 3 -97
3 0 -156 c0 -183 -9 -215 -62 -215 -17 0 -40 7 -50 17 -17 15 -18 43 -18 456
0 396 2 442 17 459 15 16 35 18 230 18 170 0 224 -3 263 -16z m485 -14 c11
-22 15 -65 15 -185 0 -86 4 -155 9 -155 5 0 89 83 187 185 187 194 205 206
246 168 39 -35 25 -64 -96 -190 -197 -205 -212 -224 -188 -235 4 -1 25 -25 47
-53 22 -27 42 -52 45 -55 3 -3 35 -41 70 -85 36 -44 67 -82 70 -85 3 -3 24
-27 45 -55 22 -27 48 -59 58 -69 36 -41 10 -106 -44 -106 -24 0 -52 29 -206
215 -97 118 -182 215 -187 215 -5 0 -20 -10 -33 -22 -22 -21 -23 -27 -23 -185
0 -191 -9 -223 -62 -223 -17 0 -40 7 -50 17 -17 15 -18 43 -18 456 0 490 -2
477 66 477 27 0 36 -6 49 -30z m1272 18 c86 -23 164 -126 147 -195 -7 -24 -36
-37 -75 -31 -15 2 -30 18 -45 49 -32 63 -61 71 -241 67 -125 -3 -145 -5 -170
-24 -26 -20 -28 -26 -31 -107 l-3 -85 34 -26 c33 -25 38 -26 190 -26 170 0
224 -11 285 -57 67 -50 104 -186 82 -296 -7 -34 -19 -74 -26 -88 -21 -42 -88
-93 -138 -107 -62 -16 -370 -16 -432 0 -69 19 -127 74 -148 142 -21 65 -15 91
22 104 37 13 70 -2 82 -35 33 -92 56 -101 255 -102 238 -1 260 12 260 161 0
76 -3 89 -23 111 -35 37 -86 47 -244 47 -154 0 -192 7 -247 48 -54 40 -75 100
-75 213 0 85 3 101 27 141 28 48 57 72 115 93 49 18 334 20 399 3z m-9179
-1254 c12 -8 22 -21 22 -29 0 -23 -20 -28 -39 -11 -26 24 -98 21 -106 -4 -3
-10 -1 -28 5 -40 9 -16 21 -20 64 -20 62 0 80 -15 80 -65 0 -55 -27 -75 -97
-75 -65 0 -97 17 -97 52 0 22 8 22 34 3 21 -16 93 -20 114 -6 20 12 10 45 -13
49 -87 12 -135 44 -135 90 0 45 36 72 95 72 30 0 60 -6 73 -16z m267 -4 c0
-10 -13 -17 -40 -20 l-40 -5 -5 -105 c-6 -132 -24 -139 -28 -11 -1 52 -8 101
-14 108 -6 7 -23 13 -38 13 -26 0 -46 21 -32 34 3 4 49 5 102 4 76 -2 95 -6
95 -18z m219 11 c10 -16 -19 -30 -69 -33 -50 -3 -50 -3 -50 -38 0 -33 2 -35
38 -38 20 -2 37 -7 37 -11 0 -16 -26 -31 -53 -31 -25 0 -28 -3 -25 -27 3 -26
7 -28 55 -31 29 -2 57 -9 63 -17 18 -21 -3 -27 -86 -23 l-69 3 -3 128 -3 127
80 0 c44 0 82 -4 85 -9z m219 2 c17 -16 -19 -33 -69 -33 -49 0 -54 -2 -60 -25
-10 -41 1 -55 46 -55 22 0 40 -4 40 -10 0 -12 -34 -30 -58 -30 -22 0 -34 -22
-26 -45 4 -11 21 -15 58 -15 58 0 87 -13 70 -30 -7 -7 -41 -10 -85 -8 l-74 3
-3 114 c-1 63 0 121 2 128 6 14 146 19 159 6z m97 -96 c0 -51 4 -97 8 -104 4
-6 30 -13 57 -15 36 -2 50 -7 50 -18 0 -11 -14 -16 -54 -18 -104 -6 -101 -9
-101 127 0 86 3 121 13 124 23 8 27 -5 27 -96z m462 86 c10 -9 18 -24 18 -35
0 -22 -28 -24 -36 -3 -8 19 -104 21 -122 3 -18 -18 -15 -133 4 -152 23 -24
100 -21 116 3 13 21 38 17 38 -5 0 -8 -9 -23 -20 -34 -28 -28 -127 -28 -157 0
-43 39 -42 189 0 222 30 24 133 25 159 1z m266 -3 c19 -18 22 -31 22 -107 0
-75 -3 -90 -22 -110 -31 -33 -131 -33 -165 -1 -21 19 -23 31 -23 107 0 73 3
88 22 108 30 32 133 34 166 3z m173 -60 c34 -44 66 -80 71 -80 4 0 8 34 8 75
0 41 2 75 4 75 2 0 11 3 20 6 14 5 16 -9 16 -121 0 -120 -1 -126 -20 -123 -10
2 -43 34 -72 72 -29 38 -58 71 -65 73 -9 3 -13 -18 -15 -74 -2 -61 -6 -78 -18
-78 -12 0 -16 21 -18 114 -3 116 0 141 16 141 6 0 38 -36 73 -80z m361 63 c20
-18 25 -53 7 -53 -6 0 -17 7 -26 16 -10 10 -29 14 -57 12 -40 -3 -41 -4 -41
-38 l0 -35 58 -3 c69 -4 94 -29 83 -87 -9 -44 -30 -55 -102 -55 -62 0 -94 18
-94 52 0 22 16 23 36 3 15 -15 79 -20 108 -9 9 3 16 17 16 30 0 19 -5 24 -27
24 -38 0 -103 24 -114 41 -14 23 -10 81 8 101 22 24 118 25 145 1z m266 0 c-2
-12 -15 -20 -38 -23 l-35 -5 -5 -105 c-4 -84 -8 -105 -20 -105 -12 0 -16 19
-18 100 -3 106 -7 115 -54 115 -21 0 -28 5 -28 20 0 19 7 20 101 20 90 0 100
-2 97 -17z m214 0 c25 -23 24 -83 -3 -112 -11 -12 -19 -27 -16 -34 3 -7 12
-28 21 -49 13 -31 13 -37 1 -42 -9 -3 -25 12 -45 45 -24 39 -35 50 -53 47 -18
-2 -23 -11 -25 -43 -3 -38 -18 -59 -34 -49 -10 6 -11 238 -1 247 3 4 36 7 71
7 47 0 71 -5 84 -17z m106 -83 c1 -52 8 -100 14 -107 6 -7 31 -13 58 -13 27 0
52 6 58 13 6 7 13 56 14 108 2 76 6 94 18 94 12 0 15 -19 15 -107 0 -100 -1
-108 -24 -127 -37 -32 -133 -30 -166 4 -23 22 -25 31 -25 123 0 54 3 102 7
106 19 19 28 -8 31 -94z m429 78 c13 -12 23 -27 23 -34 0 -23 -19 -25 -37 -4
-23 26 -117 29 -127 4 -11 -28 -6 -140 6 -152 17 -17 93 -15 108 3 15 18 50
20 50 3 0 -6 -10 -22 -22 -35 -18 -19 -32 -23 -84 -23 -56 0 -65 3 -83 26 -17
22 -21 41 -21 107 0 107 16 127 104 127 48 0 64 -4 83 -22z m251 5 c-2 -10
-14 -20 -28 -21 -45 -7 -50 -19 -50 -118 0 -57 -4 -95 -11 -100 -21 -12 -29
20 -29 118 l0 97 -37 3 c-27 2 -39 8 -41 21 -3 15 7 17 98 17 91 0 101 -2 98
-17z m92 -108 c0 -118 -1 -125 -20 -125 -19 0 -20 7 -20 119 0 116 3 127 33
130 4 1 7 -55 7 -124z m259 99 c17 -22 21 -41 21 -106 0 -70 -3 -82 -25 -103
-20 -21 -34 -25 -83 -25 -91 0 -106 16 -111 124 -3 80 -2 86 23 110 22 23 34
26 90 26 58 0 67 -3 85 -26z m147 -21 c22 -27 53 -66 69 -88 l30 -40 5 85 c4
67 8 85 20 85 12 0 15 -21 18 -121 3 -146 -5 -157 -64 -81 -21 28 -54 66 -71
86 l-32 36 -1 -81 c0 -85 -3 -96 -26 -87 -11 4 -14 31 -14 122 0 152 5 158 66
84z m467 29 c24 -26 8 -46 -26 -31 -32 14 -57 6 -57 -19 0 -26 55 -73 88 -75
20 -2 28 -8 30 -27 2 -14 11 -33 19 -42 21 -23 10 -56 -12 -38 -12 10 -21 10
-41 1 -42 -19 -98 -14 -121 12 -29 31 -36 76 -18 111 8 15 15 39 15 52 0 14 7
36 16 49 20 31 82 35 107 7z m389 1 c27 -24 24 -84 -6 -112 l-24 -23 24 -41
c29 -51 29 -57 5 -57 -12 0 -26 14 -38 37 -37 70 -83 72 -83 3 0 -33 -3 -40
-20 -40 -19 0 -20 7 -20 118 0 65 3 122 7 125 3 4 36 7 71 7 47 0 71 -5 84
-17z m232 8 c10 -16 -19 -30 -69 -33 -50 -3 -50 -3 -50 -38 0 -34 1 -35 43
-38 23 -2 42 -7 42 -11 0 -9 -38 -29 -65 -33 -14 -2 -20 -11 -20 -28 0 -23 4
-25 60 -30 44 -4 60 -9 60 -20 0 -11 -15 -16 -60 -18 -108 -6 -105 -10 -105
127 0 65 3 121 7 124 10 10 151 8 157 -2z m232 1 c11 -7 34 -45 34 -56 0 -13
-38 -5 -44 9 -7 19 -96 21 -114 3 -7 -7 -12 -40 -12 -78 0 -38 5 -71 12 -78 7
-7 33 -12 59 -12 35 0 50 5 60 20 10 14 18 17 29 10 13 -8 12 -13 -6 -37 -19
-25 -28 -28 -86 -31 -88 -4 -102 11 -106 122 -3 71 -1 84 18 109 19 24 28 27
83 27 34 0 67 -4 73 -8z m136 -60 l32 -55 18 24 c11 13 29 39 41 58 12 19 28
36 35 39 20 6 14 -33 -13 -72 -43 -64 -60 -100 -65 -141 -7 -53 -24 -51 -28 3
-2 24 -11 56 -20 72 -57 95 -71 123 -67 131 11 17 37 -6 67 -59z m367 42 c11
-15 18 -30 15 -35 -8 -14 -31 -10 -38 6 -6 17 -91 21 -115 6 -22 -14 -27 -115
-7 -146 14 -21 24 -25 65 -25 34 0 51 5 55 15 6 16 32 20 40 6 3 -5 -4 -20
-15 -35 -18 -23 -28 -26 -82 -26 -49 0 -65 4 -84 22 -21 19 -23 31 -23 107 0
73 3 88 22 108 18 19 32 23 84 23 56 0 65 -3 83 -26z m121 -85 l5 -104 50 -5
c36 -4 50 -9 50 -20 0 -19 -119 -27 -141 -9 -18 15 -20 219 -2 237 25 25 33 3
38 -99z m188 -14 c2 -111 -5 -151 -25 -131 -11 10 -17 178 -8 222 3 21 11 34
18 31 8 -2 13 -41 15 -122z m183 24 c29 -37 56 -66 61 -63 4 3 8 41 8 85 0 43
4 79 8 79 25 0 32 -30 32 -131 0 -135 -11 -150 -63 -87 -20 24 -51 62 -70 85
-19 23 -37 39 -41 36 -3 -4 -6 -39 -6 -78 0 -77 -5 -91 -27 -74 -9 8 -13 42
-13 124 0 154 11 157 111 24z m350 88 c21 -16 29 -41 19 -58 -7 -11 -13 -10
-30 9 -15 15 -32 22 -60 22 -67 0 -70 -3 -70 -90 0 -86 3 -90 65 -90 63 0 88
27 45 50 -32 17 -23 31 18 28 33 -3 37 -6 40 -34 2 -19 -5 -40 -18 -57 -19
-24 -28 -27 -81 -27 -50 0 -64 4 -84 25 -22 21 -25 33 -25 103 0 65 4 84 21
106 18 23 27 26 82 26 34 0 69 -6 78 -13z m244 -4 c8 -10 28 -37 45 -61 17
-24 35 -42 40 -40 5 2 26 27 47 57 60 86 64 82 61 -63 -3 -139 -21 -174 -26
-51 -2 41 -6 75 -10 75 -4 0 -16 -12 -27 -27 -46 -61 -57 -62 -90 -13 -11 17
-24 28 -30 27 -5 -2 -11 -32 -13 -68 -3 -59 -15 -85 -34 -73 -10 6 -11 238 -1
247 11 11 22 8 38 -10z m403 -49 c13 -32 32 -77 42 -99 26 -59 32 -83 22 -88
-11 -8 -27 4 -41 31 -10 18 -20 22 -61 22 -43 0 -52 -4 -72 -30 -14 -20 -25
-27 -32 -20 -6 6 6 49 34 122 60 152 69 157 108 62z m152 -64 c0 -92 -3 -119
-14 -123 -8 -3 -17 -3 -20 0 -3 4 -6 59 -6 123 0 64 3 119 6 123 3 3 12 3 20
0 11 -4 14 -31 14 -123z m161 50 c34 -44 66 -80 71 -80 4 0 8 33 8 74 0 59 3
75 16 80 9 4 19 4 22 1 9 -9 15 -171 8 -209 -9 -49 -33 -46 -76 11 -62 80 -82
103 -90 103 -5 0 -10 -35 -12 -77 -2 -61 -6 -78 -18 -78 -12 0 -16 21 -18 114
-4 172 1 175 89 61z m374 60 c0 -10 -13 -17 -40 -20 l-40 -5 -5 -105 c-6 -132
-24 -139 -28 -11 -1 52 -8 101 -14 108 -6 7 -23 13 -39 13 -15 0 -31 5 -34 10
-15 24 10 31 103 28 78 -2 97 -6 97 -18z m210 0 c0 -11 -16 -16 -60 -20 -57
-5 -60 -6 -63 -34 -4 -34 10 -46 56 -46 45 0 37 -22 -14 -36 -28 -8 -40 -17
-42 -32 -4 -23 12 -30 83 -34 28 -2 40 -8 40 -18 0 -12 -16 -15 -80 -15 l-80
0 -3 114 c-1 63 0 121 3 128 7 21 160 14 160 -7z m157 -65 c34 -46 66 -84 71
-85 4 0 7 35 7 78 0 83 3 94 26 85 11 -4 14 -31 14 -123 0 -154 -7 -157 -96
-44 -77 98 -84 97 -84 -14 0 -54 -3 -73 -12 -70 -9 3 -14 38 -16 118 -3 116 0
140 17 140 5 0 38 -38 73 -85z m295 73 c22 -29 94 -221 88 -237 -5 -13 -11
-10 -33 17 -24 28 -33 32 -75 32 -41 0 -49 -4 -59 -24 -12 -28 -34 -40 -44
-25 -9 16 88 249 105 249 5 0 13 -6 18 -12z m221 -57 c29 -37 61 -76 72 -86
20 -18 20 -17 20 63 0 79 12 111 31 81 5 -8 9 -62 9 -120 0 -142 -10 -151 -76
-68 -27 34 -59 73 -71 88 l-22 26 -1 -60 c0 -79 -8 -105 -31 -105 -18 0 -19 9
-19 119 0 114 3 126 31 130 3 1 29 -30 57 -68z m380 49 c23 -21 28 -45 13 -54
-4 -3 -16 3 -26 14 -24 26 -119 29 -129 4 -11 -28 -6 -140 6 -152 20 -20 92
-15 122 9 23 18 27 19 32 4 4 -10 -3 -26 -16 -41 -20 -20 -33 -24 -82 -24 -49
0 -63 4 -83 25 -22 21 -25 33 -25 103 0 65 4 84 21 106 18 23 27 26 83 26 49
0 67 -4 84 -20z m247 0 c0 -11 -16 -16 -60 -20 -57 -5 -60 -6 -63 -34 -4 -33
10 -46 51 -46 41 0 34 -26 -10 -37 -28 -6 -39 -15 -41 -30 -4 -24 11 -31 83
-35 28 -2 40 -8 40 -18 0 -12 -16 -15 -80 -15 l-80 0 -3 114 c-1 63 0 121 3
128 7 21 160 14 160 -7z m-4084 -1977 c8 -16 29 -54 46 -86 40 -71 41 -96 8
-127 -14 -13 -25 -30 -25 -38 0 -36 125 -173 188 -206 29 -15 62 -13 62 3 0 5
15 16 34 26 l34 19 96 -58 c60 -36 96 -63 96 -74 0 -9 -30 -47 -67 -84 l-67
-68 -58 0 c-102 0 -237 76 -362 205 -91 94 -146 184 -175 291 -19 71 -15 82
56 155 76 79 109 89 134 42z m-5855 9 c17 -10 94 -168 94 -191 0 -11 -12 -33
-26 -50 l-26 -31 25 -43 c32 -54 147 -164 180 -172 20 -5 34 -1 58 19 17 14
41 26 53 26 36 0 196 -100 196 -122 0 -24 -92 -123 -133 -143 -52 -26 -98 -18
-206 32 -65 31 -146 95 -224 177 -101 106 -167 237 -167 331 0 42 4 49 66 110
63 62 85 74 110 57z m1474 -302 c0 -109 0 -111 25 -120 32 -12 34 -47 3 -52
-18 -2 -24 -11 -26 -35 -2 -24 -8 -33 -22 -33 -14 0 -20 9 -22 33 l-3 32 -87
3 c-83 3 -88 4 -88 25 0 12 17 45 38 72 21 28 59 80 86 118 36 51 54 67 72 67
24 0 24 0 24 -110z m365 85 c0 -18 -8 -20 -95 -25 l-95 -5 0 -30 0 -30 77 -3
c69 -3 79 -5 98 -29 15 -20 20 -40 20 -88 0 -54 -4 -66 -26 -89 -24 -23 -34
-26 -102 -26 -64 0 -79 3 -99 22 -29 27 -31 68 -3 68 10 0 24 -9 30 -20 9 -17
21 -20 75 -20 59 0 65 2 71 23 3 13 4 41 2 63 l-3 39 -81 1 c-115 1 -114 0
-114 87 0 41 3 77 7 81 4 3 59 5 122 4 108 -3 116 -4 116 -23z m453 -90 c2
-103 4 -111 25 -120 28 -13 28 -39 0 -43 -16 -2 -23 -11 -25 -35 -4 -44 -40
-46 -48 -2 l-5 30 -85 5 c-72 4 -85 8 -85 22 0 10 40 72 89 138 70 96 93 120
110 118 20 -3 21 -10 24 -113z m331 100 c38 -19 51 -60 51 -160 0 -144 -24
-175 -138 -175 -63 0 -70 2 -98 31 -27 28 -29 36 -32 125 -4 105 6 143 46 174
30 25 129 27 171 5z m399 -158 c2 -147 0 -168 -14 -174 -27 -10 -34 17 -34
141 l0 118 -22 -14 c-25 -16 -48 -13 -48 5 0 19 84 98 100 95 13 -3 15 -31 18
-171z m292 149 c28 -31 32 -92 8 -128 -9 -14 -41 -39 -70 -56 -56 -32 -98 -67
-98 -82 0 -5 39 -11 88 -12 79 -3 87 -5 87 -23 0 -19 -8 -20 -112 -23 -122 -3
-124 -2 -115 59 5 37 37 69 113 118 66 41 82 63 72 101 -5 17 -14 20 -69 20
-53 0 -65 -3 -74 -20 -6 -11 -20 -20 -30 -20 -29 0 -25 36 6 65 23 22 36 25
99 25 63 0 74 -3 95 -24z m504 15 c4 -5 3 -16 0 -25 -5 -12 -26 -16 -97 -18
-88 -3 -92 -4 -95 -27 -5 -32 12 -41 86 -41 53 0 67 -4 87 -25 21 -20 25 -34
25 -86 0 -55 -4 -67 -27 -91 -25 -26 -32 -28 -104 -28 -69 0 -79 2 -103 26
-33 34 -35 64 -3 64 12 0 28 -9 35 -20 10 -16 23 -20 71 -20 71 0 83 11 79 77
l-3 48 -85 0 c-47 0 -91 4 -97 8 -14 9 -19 148 -6 160 10 11 231 8 237 -2z
m290 -16 c20 -18 26 -34 26 -64 0 -49 -22 -76 -110 -134 -36 -23 -66 -50 -68
-59 -3 -15 8 -18 80 -20 77 -3 83 -5 86 -25 3 -23 2 -23 -112 -23 l-116 0 0
37 c0 50 34 92 114 139 69 41 82 59 72 100 -6 22 -11 24 -71 24 -55 0 -64 -3
-70 -21 -5 -14 -14 -19 -28 -17 -27 4 -25 33 6 66 18 19 31 22 92 22 63 0 76
-3 99 -25z m464 -92 c2 -90 6 -113 17 -113 8 0 19 -9 25 -20 9 -17 7 -22 -13
-29 -16 -6 -26 -20 -30 -41 -9 -41 -40 -38 -47 5 l-5 30 -83 3 c-121 4 -123
-6 36 210 42 57 58 72 75 70 21 -3 22 -9 25 -115z m339 93 c28 -24 28 -25 28
-151 0 -126 0 -127 -28 -151 -24 -20 -39 -24 -96 -24 -107 0 -141 41 -141 170
1 138 34 180 142 180 56 0 71 -4 95 -24z m2401 -92 c3 -110 3 -112 27 -118 32
-8 32 -34 1 -46 -17 -6 -26 -18 -28 -37 -4 -41 -41 -39 -48 2 l-5 30 -83 3
c-77 3 -82 4 -82 25 0 12 39 75 86 140 69 95 90 118 107 115 21 -3 22 -9 25
-114z m357 91 c0 -18 -8 -20 -93 -23 l-93 -3 3 -32 3 -32 70 -3 c98 -4 115
-21 115 -114 0 -60 -3 -72 -25 -93 -21 -22 -33 -25 -98 -25 -65 0 -77 3 -101
25 -31 29 -35 65 -7 65 11 0 26 -9 34 -21 13 -17 23 -20 78 -17 l64 3 3 64 3
63 -93 -3 -93 -4 -3 74 c-2 41 -1 80 2 88 4 11 30 13 118 11 105 -3 113 -4
113 -23z m463 -92 c2 -90 6 -113 17 -113 16 0 38 -34 28 -44 -3 -3 -14 -6 -24
-6 -13 0 -19 -9 -21 -32 -2 -25 -8 -33 -23 -33 -15 0 -21 8 -23 33 l-3 32 -85
0 c-124 0 -124 -5 19 188 54 74 73 93 90 90 21 -3 22 -9 25 -115z m344 88 l33
-29 0 -110 c0 -158 -18 -182 -139 -182 -101 0 -126 36 -126 177 0 94 16 143
53 161 12 6 50 11 84 11 56 1 66 -2 95 -28z m383 -146 c0 -163 -1 -170 -20
-170 -19 0 -20 8 -23 115 -3 139 -5 149 -32 125 -11 -10 -26 -15 -36 -11 -15
6 -15 8 1 34 32 50 69 83 90 80 19 -3 20 -10 20 -173z m200 0 c0 -163 -1 -170
-20 -170 -19 0 -20 8 -23 128 -1 70 -6 127 -10 127 -5 0 -17 -7 -28 -15 -26
-20 -34 -19 -34 6 0 29 70 99 95 96 19 -2 20 -9 20 -172z m455 160 c9 -11 11
-40 6 -110 l-7 -95 25 -12 c32 -14 34 -45 4 -50 -16 -2 -24 -12 -28 -33 -7
-42 -40 -47 -40 -7 0 37 -12 42 -106 42 -68 0 -74 2 -74 21 0 28 170 259 191
259 9 0 22 -7 29 -15z m315 5 c4 -6 4 -33 0 -60 -6 -41 -16 -60 -61 -110 -41
-47 -54 -68 -54 -93 0 -51 -11 -77 -31 -77 -16 0 -19 8 -19 55 0 66 15 98 65
143 37 34 60 76 49 93 -3 5 -40 9 -84 9 -62 0 -79 3 -84 16 -3 9 -4 20 0 25 8
13 211 12 219 -1z m456 -21 c28 -30 29 -34 29 -141 0 -158 -14 -177 -131 -178
-85 0 -117 15 -121 60 -4 33 36 42 45 11 4 -18 13 -21 69 -21 68 0 88 10 88
45 0 20 -5 21 -81 21 -77 -1 -82 1 -105 27 -19 23 -24 39 -24 87 0 48 4 64 26
89 25 30 29 31 101 31 71 0 77 -2 104 -31z m341 2 c33 -29 33 -30 37 -133 5
-155 -20 -188 -143 -188 -55 0 -67 4 -89 26 -31 31 -41 86 -35 187 7 112 30
135 135 136 56 1 66 -2 95 -28z m-9692 -87 c5 -35 8 -39 37 -42 20 -2 37 -11
43 -23 12 -22 6 -26 -45 -31 -27 -3 -31 -7 -35 -43 -3 -27 -10 -41 -22 -43
-13 -3 -17 6 -20 40 -3 42 -4 43 -43 46 -22 2 -44 7 -49 12 -17 17 15 40 55
40 39 0 39 0 39 38 0 66 32 71 40 6z m5838 -2 c3 -40 4 -42 37 -42 24 0 38 -6
45 -20 12 -23 6 -27 -45 -32 -27 -3 -31 -7 -35 -43 -7 -58 -36 -60 -47 -3 -8
42 -10 43 -51 46 -33 2 -42 7 -42 22 0 21 19 30 61 30 24 0 29 4 29 26 0 33
18 66 33 61 7 -2 13 -22 15 -45z"/>
<path d="M5973 4389 c-12 -15 -153 -356 -153 -371 0 -4 74 -8 165 -8 91 0 165
2 165 4 0 5 -28 72 -56 134 -13 29 -24 55 -24 58 0 3 -11 31 -25 62 -58 132
-60 135 -72 121z"/>
<path d="M8840 4479 c-46 -14 -78 -45 -91 -88 -6 -22 -9 -128 -7 -278 3 -227
4 -243 24 -270 39 -53 63 -58 254 -58 191 0 215 5 254 58 20 27 21 40 21 292
0 252 -1 265 -21 292 -38 51 -65 58 -239 60 -88 1 -176 -3 -195 -8z"/>
<path d="M9820 4320 l0 -170 146 0 c242 0 259 11 259 170 0 161 -14 170 -257
170 l-148 0 0 -170z"/>
<path d="M4160 3294 c-6 -14 -10 -43 -10 -64 0 -21 4 -50 10 -64 8 -23 15 -26
57 -26 72 0 78 8 78 90 0 82 -6 90 -78 90 -42 0 -49 -3 -57 -26z"/>
<path d="M5207 3314 c-4 -4 -7 -20 -7 -35 0 -32 24 -44 71 -34 27 6 30 10 27
38 -3 30 -6 32 -43 35 -23 2 -44 0 -48 -4z"/>
<path d="M6313 3313 c-9 -3 -13 -30 -13 -83 0 -86 3 -90 81 -90 49 0 59 14 59
86 0 90 -3 94 -64 93 -28 0 -57 -3 -63 -6z"/>
<path d="M6972 3183 c3 -35 6 -38 37 -41 53 -5 62 14 21 49 -47 40 -62 38 -58
-8z"/>
<path d="M7344 3306 c-3 -8 -4 -25 -2 -38 2 -18 10 -24 36 -26 42 -4 64 14 60
47 -3 23 -8 26 -46 29 -30 2 -44 -1 -48 -12z"/>
<path d="M9856 3246 c-21 -45 -21 -46 19 -46 19 0 35 3 35 7 0 15 -24 73 -31
73 -4 0 -14 -15 -23 -34z"/>
<path d="M11232 3257 c-18 -49 -15 -57 18 -57 25 0 30 4 30 23 0 12 -8 32 -18
45 l-18 23 -12 -34z"/>
<path d="M3578 1073 c-22 -26 -78 -110 -78 -118 0 -3 24 -5 53 -3 l52 3 3 52
c2 29 -1 60 -6 68 -7 14 -10 14 -24 -2z"/>
<path d="M4361 1023 c-23 -31 -41 -60 -41 -65 0 -4 23 -8 50 -8 l50 0 0 65 c0
36 -4 65 -9 65 -6 0 -28 -25 -50 -57z"/>
<path d="M4642 1110 c-17 -27 -16 -189 2 -212 10 -14 28 -18 75 -18 57 0 62 2
71 26 13 34 13 180 0 205 -9 16 -22 19 -73 19 -51 0 -64 -4 -75 -20z m82 -96
c26 -10 20 -44 -7 -44 -31 0 -38 9 -26 31 11 21 11 21 33 13z"/>
<path d="M6653 1043 c-30 -38 -53 -76 -53 -88 0 -3 21 -5 48 -3 l47 3 3 54 c4
72 -8 81 -45 34z"/>
<path d="M6916 1108 c-11 -16 -16 -46 -16 -103 0 -109 11 -125 90 -125 74 0
80 9 80 125 0 116 -6 125 -80 125 -50 0 -61 -4 -74 -22z m78 -94 c27 -10 20
-44 -9 -44 -18 0 -25 5 -25 18 0 29 9 36 34 26z"/>
<path d="M9416 1064 c-19 -18 -76 -100 -76 -108 0 -3 23 -6 50 -6 l50 0 0 65
c0 36 -2 65 -4 65 -3 0 -12 -7 -20 -16z"/>
<path d="M10211 1038 c-22 -29 -45 -58 -51 -65 -17 -20 -12 -23 45 -23 l55 0
0 70 c0 39 -2 70 -4 70 -2 0 -23 -24 -45 -52z"/>
<path d="M10480 1111 c-15 -28 -13 -193 3 -215 10 -14 25 -16 77 -14 64 3 64
3 73 38 13 48 2 190 -15 201 -7 5 -39 9 -70 9 -47 0 -59 -4 -68 -19z m90 -106
c15 -18 5 -35 -21 -35 -24 0 -37 29 -18 41 19 12 25 11 39 -6z"/>
<path d="M11616 1064 c-20 -19 -76 -100 -76 -109 0 -3 24 -5 53 -3 l52 3 3 63
c3 64 -4 74 -32 46z"/>
<path d="M12286 1114 c-3 -9 -6 -35 -6 -59 0 -52 16 -65 80 -65 65 0 80 13 80
68 0 27 -5 53 -12 60 -19 19 -134 16 -142 -4z"/>
<path d="M12630 1104 c-6 -14 -10 -58 -10 -99 0 -41 4 -85 10 -99 9 -24 14
-26 71 -26 82 0 88 9 88 125 0 116 -6 125 -88 125 -57 0 -62 -2 -71 -26z m90
-99 c15 -18 5 -35 -20 -35 -10 0 -22 5 -25 10 -7 11 12 40 25 40 4 0 13 -7 20
-15z"/>
</g>
</svg>
